<?xml version="1.0" encoding="utf-8"?>
<svg version="1.1" id="_x32_" x="0px" y="0px" viewBox="0 0 512 512" style="width: 256px; height: 256px; opacity: 1;" xmlns="http://www.w3.org/2000/svg">
  <style type="text/css">
	.st0{fill:#4B4B4B;}
</style>
  <g transform="matrix(0.620457, -0.2216, 0.206313, 0.577653, -12.266195, 114.119476)" style="opacity: 0.3;">
    <path class="st0" d="M399.151,0.039c-35.093-1.211-64.489,26.244-65.692,61.337c-1.219,35.093,26.245,64.507,61.33,65.718 c35.084,1.21,64.498-26.262,65.699-61.347C461.708,30.663,434.235,1.249,399.151,0.039z" style="fill: rgb(255, 255, 255);"/>
    <path class="st0" d="M382.245,153.356c-24.019-9.49-51.188,2.279-60.661,26.324v-0.027l-50.761,126.788l-99.12-29.164 c-21.464-8.173-45.464,2.092-54.358,23.28L54.021,466.845c-6.961,16.56,0.828,35.646,17.414,42.608 c16.585,6.961,35.663-0.837,42.625-17.404l65.78-120.655l76.24,30.17c45.17,18.606,77.068,0,95.665-45.179l56.833-142.35 C418.059,190.007,406.29,162.846,382.245,153.356z" style="fill: rgb(255, 255, 255);"/>
  </g>
  <g transform="matrix(0.570159, 0, 0, 0.572792, 129.462051, 155.820755)" style="opacity: 0.3;">
    <polygon class="st0" points="371.92,0 321.862,220.524 74.776,220.524 74.776,284.19 74.776,512 138.453,512 138.453,284.19 &#10;&#9;&#9;315.455,284.19 315.455,512 379.12,512 379.12,255.925 437.224,0 &#9;" style="fill: rgb(255, 255, 255);"/>
  </g>
</svg>