<?xml version="1.0" encoding="utf-8"?>
<svg version="1.1" id="_x32_" x="0px" y="0px" width="512px" height="512px" viewBox="0 0 512 512" style="width: 256px; height: 256px; opacity: 1;" xmlns="http://www.w3.org/2000/svg">
  <style type="text/css">

	.st0{fill:#4B4B4B;}

</style>
  <g style="opacity: 0.3;" transform="matrix(0.738494, 0, 0, 0.738494, 66.945526, 66.945518)">
    <polygon class="st0" points="442.531,218 344.828,120.297 256,31.469 167.172,120.297 69.438,218.047 0,287.469 39.984,327.453 &#10;&#9;&#9;109.406,258.031 207.156,160.281 256,111.438 304.844,160.281 402.531,257.984 472.016,327.453 512,287.469 &#9;" style="fill: rgb(255, 255, 255);"/>
    <polygon class="st0" points="85.719,330.375 85.719,480.531 274.75,480.531 274.75,361.547 343.578,361.547 343.578,480.531 &#10;&#9;&#9;426.281,480.531 426.281,330.328 256.016,160.063 &#9;" style="fill: rgb(255, 255, 255);"/>
  </g>
</svg>